<svg fill="rgb(175,159,191)" height="512pt" preserveAspectRatio="xMidYMid meet" version="1.0" viewBox="0 0 512 512" width="512pt" xmlns="http://www.w3.org/2000/svg"><g transform="translate(76.8,153.6) scale(0.7)">
<g transform="translate(0.000000,512) scale(0.100000,-0.100000)">
<path d="M 2500 4690 h 120 v 10 h -120 z M 2470 4680 h 180 v 10 h -180 z M 2450 4670 h 220 v 10 h -220 z M 2430 4660 h 260 v 10 h -260 z M 2420 4650 h 280 v 10 h -280 z M 2410 4640 h 300 v 10 h -300 z M 2400 4630 h 320 v 10 h -320 z M 2390 4620 h 340 v 10 h -340 z M 2380 4610 h 360 v 10 h -360 z M 2370 4600 h 380 v 10 h -380 z M 2370 4590 h 380 v 10 h -380 z M 2360 4580 h 160 v 10 h -160 z M 2600 4580 h 160 v 10 h -160 z M 2360 4570 h 140 v 10 h -140 z M 2620 4570 h 140 v 10 h -140 z M 2360 4560 h 130 v 10 h -130 z M 2630 4560 h 130 v 10 h -130 z M 2350 4550 h 130 v 10 h -130 z M 2640 4550 h 130 v 10 h -130 z M 2350 4540 h 120 v 10 h -120 z M 2650 4540 h 120 v 10 h -120 z M 850 4530 h 3420 v 10 h -3420 z M 820 4520 h 3480 v 10 h -3480 z M 800 4510 h 3520 v 10 h -3520 z M 790 4500 h 3540 v 10 h -3540 z M 780 4490 h 3570 v 10 h -3570 z M 760 4480 h 3600 v 10 h -3600 z M 760 4470 h 3600 v 10 h -3600 z M 750 4460 h 3620 v 10 h -3620 z M 740 4450 h 3640 v 10 h -3640 z M 730 4440 h 3650 v 10 h -3650 z M 730 4430 h 3660 v 10 h -3660 z M 730 4420 h 3660 v 10 h -3660 z M 720 4410 h 3680 v 10 h -3680 z M 720 4400 h 3680 v 10 h -3680 z M 710 4390 h 3700 v 10 h -3700 z M 710 4380 h 3700 v 10 h -3700 z M 710 4370 h 3700 v 10 h -3700 z M 710 4360 h 3700 v 10 h -3700 z M 710 4350 h 3700 v 10 h -3700 z M 710 4340 h 3700 v 10 h -3700 z M 710 4330 h 3700 v 10 h -3700 z M 710 4320 h 3700 v 10 h -3700 z M 710 4310 h 3700 v 10 h -3700 z M 710 4300 h 3700 v 10 h -3700 z M 710 4290 h 3700 v 10 h -3700 z M 710 4280 h 3700 v 10 h -3700 z M 710 4270 h 3700 v 10 h -3700 z M 710 4260 h 3690 v 10 h -3690 z M 720 4250 h 3680 v 10 h -3680 z M 720 4240 h 3680 v 10 h -3680 z M 730 4230 h 3660 v 10 h -3660 z M 730 4220 h 3660 v 10 h -3660 z M 730 4210 h 3650 v 10 h -3650 z M 740 4200 h 3640 v 10 h -3640 z M 750 4190 h 3620 v 10 h -3620 z M 760 4180 h 3600 v 10 h -3600 z M 760 4170 h 3590 v 10 h -3590 z M 780 4160 h 3560 v 10 h -3560 z M 790 4150 h 3540 v 10 h -3540 z M 800 4140 h 3520 v 10 h -3520 z M 820 4130 h 3480 v 10 h -3480 z M 850 4120 h 3420 v 10 h -3420 z M 1230 4110 h 2660 v 10 h -2660 z M 4110 4110 h 100 v 10 h -100 z M 1230 4100 h 2660 v 10 h -2660 z M 4110 4100 h 100 v 10 h -100 z M 1230 4090 h 2660 v 10 h -2660 z M 4110 4090 h 100 v 10 h -100 z M 1230 4080 h 2660 v 10 h -2660 z M 4110 4080 h 100 v 10 h -100 z M 1230 4070 h 2660 v 10 h -2660 z M 4110 4070 h 100 v 10 h -100 z M 1230 4060 h 2660 v 10 h -2660 z M 4110 4060 h 100 v 10 h -100 z M 1230 4050 h 2660 v 10 h -2660 z M 4110 4050 h 100 v 10 h -100 z M 1230 4040 h 2660 v 10 h -2660 z M 4110 4040 h 100 v 10 h -100 z M 1230 4030 h 2660 v 10 h -2660 z M 4110 4030 h 100 v 10 h -100 z M 1230 4020 h 2660 v 10 h -2660 z M 4110 4020 h 100 v 10 h -100 z M 1230 4010 h 2660 v 10 h -2660 z M 4110 4010 h 100 v 10 h -100 z M 1230 4000 h 2660 v 10 h -2660 z M 4110 4000 h 100 v 10 h -100 z M 1230 3990 h 2660 v 10 h -2660 z M 4110 3990 h 100 v 10 h -100 z M 1230 3980 h 2660 v 10 h -2660 z M 4110 3980 h 100 v 10 h -100 z M 1230 3970 h 2660 v 10 h -2660 z M 4110 3970 h 100 v 10 h -100 z M 1230 3960 h 2660 v 10 h -2660 z M 4110 3960 h 100 v 10 h -100 z M 1230 3950 h 2660 v 10 h -2660 z M 4080 3950 h 160 v 10 h -160 z M 1230 3940 h 2660 v 10 h -2660 z M 4060 3940 h 200 v 10 h -200 z M 1230 3930 h 2660 v 10 h -2660 z M 4040 3930 h 240 v 10 h -240 z M 1230 3920 h 2660 v 10 h -2660 z M 4030 3920 h 260 v 10 h -260 z M 1230 3910 h 2660 v 10 h -2660 z M 4010 3910 h 300 v 10 h -300 z M 1230 3900 h 2660 v 10 h -2660 z M 4000 3900 h 320 v 10 h -320 z M 1230 3890 h 2660 v 10 h -2660 z M 3990 3890 h 340 v 10 h -340 z M 1230 3880 h 2660 v 10 h -2660 z M 3980 3880 h 360 v 10 h -360 z M 1230 3870 h 2660 v 10 h -2660 z M 3980 3870 h 360 v 10 h -360 z M 1230 3860 h 2660 v 10 h -2660 z M 3970 3860 h 380 v 10 h -380 z M 1230 3850 h 2660 v 10 h -2660 z M 3970 3850 h 170 v 10 h -170 z M 4180 3850 h 170 v 10 h -170 z M 1230 3840 h 2660 v 10 h -2660 z M 3960 3840 h 150 v 10 h -150 z M 4210 3840 h 150 v 10 h -150 z M 1230 3830 h 2660 v 10 h -2660 z M 3960 3830 h 130 v 10 h -130 z M 4230 3830 h 130 v 10 h -130 z M 1230 3820 h 2660 v 10 h -2660 z M 3960 3820 h 120 v 10 h -120 z M 4240 3820 h 120 v 10 h -120 z M 1230 3810 h 2660 v 10 h -2660 z M 3950 3810 h 120 v 10 h -120 z M 4250 3810 h 120 v 10 h -120 z M 1230 3800 h 2660 v 10 h -2660 z M 3950 3800 h 120 v 10 h -120 z M 4250 3800 h 120 v 10 h -120 z M 1230 3790 h 2660 v 10 h -2660 z M 3950 3790 h 110 v 10 h -110 z M 4260 3790 h 110 v 10 h -110 z M 1230 3780 h 2660 v 10 h -2660 z M 3950 3780 h 110 v 10 h -110 z M 4260 3780 h 110 v 10 h -110 z M 1230 3770 h 2660 v 10 h -2660 z M 3950 3770 h 110 v 10 h -110 z M 4260 3770 h 110 v 10 h -110 z M 1230 3760 h 2660 v 10 h -2660 z M 3950 3760 h 110 v 10 h -110 z M 4260 3760 h 110 v 10 h -110 z M 1230 3750 h 2660 v 10 h -2660 z M 3950 3750 h 110 v 10 h -110 z M 4260 3750 h 110 v 10 h -110 z M 1230 3740 h 2660 v 10 h -2660 z M 3950 3740 h 110 v 10 h -110 z M 4260 3740 h 110 v 10 h -110 z M 1230 3730 h 2660 v 10 h -2660 z M 3950 3730 h 110 v 10 h -110 z M 4260 3730 h 110 v 10 h -110 z M 1230 3720 h 2660 v 10 h -2660 z M 3950 3720 h 110 v 10 h -110 z M 4260 3720 h 110 v 10 h -110 z M 1230 3710 h 2660 v 10 h -2660 z M 3950 3710 h 110 v 10 h -110 z M 4260 3710 h 110 v 10 h -110 z M 1230 3700 h 2660 v 10 h -2660 z M 3950 3700 h 110 v 10 h -110 z M 4260 3700 h 110 v 10 h -110 z M 1230 3690 h 2660 v 10 h -2660 z M 3950 3690 h 110 v 10 h -110 z M 4260 3690 h 110 v 10 h -110 z M 1230 3680 h 2660 v 10 h -2660 z M 3950 3680 h 110 v 10 h -110 z M 4260 3680 h 110 v 10 h -110 z M 1230 3670 h 2660 v 10 h -2660 z M 3950 3670 h 110 v 10 h -110 z M 4260 3670 h 110 v 10 h -110 z M 1230 3660 h 2660 v 10 h -2660 z M 3950 3660 h 110 v 10 h -110 z M 4260 3660 h 110 v 10 h -110 z M 1230 3650 h 2660 v 10 h -2660 z M 3950 3650 h 110 v 10 h -110 z M 4260 3650 h 110 v 10 h -110 z M 1230 3640 h 2660 v 10 h -2660 z M 3950 3640 h 110 v 10 h -110 z M 4260 3640 h 110 v 10 h -110 z M 1230 3630 h 2660 v 10 h -2660 z M 3950 3630 h 110 v 10 h -110 z M 4260 3630 h 110 v 10 h -110 z M 1230 3620 h 2660 v 10 h -2660 z M 3950 3620 h 110 v 10 h -110 z M 4260 3620 h 110 v 10 h -110 z M 1230 3610 h 2660 v 10 h -2660 z M 3950 3610 h 110 v 10 h -110 z M 4260 3610 h 110 v 10 h -110 z M 1230 3600 h 2660 v 10 h -2660 z M 3950 3600 h 110 v 10 h -110 z M 4260 3600 h 110 v 10 h -110 z M 1230 3590 h 2660 v 10 h -2660 z M 3950 3590 h 110 v 10 h -110 z M 4260 3590 h 110 v 10 h -110 z M 1230 3580 h 2660 v 10 h -2660 z M 3950 3580 h 110 v 10 h -110 z M 4260 3580 h 110 v 10 h -110 z M 1230 3570 h 2660 v 10 h -2660 z M 3950 3570 h 110 v 10 h -110 z M 4260 3570 h 110 v 10 h -110 z M 1230 3560 h 2660 v 10 h -2660 z M 3950 3560 h 110 v 10 h -110 z M 4260 3560 h 110 v 10 h -110 z M 1230 3550 h 2660 v 10 h -2660 z M 3950 3550 h 110 v 10 h -110 z M 4260 3550 h 110 v 10 h -110 z M 1230 3540 h 2660 v 10 h -2660 z M 3950 3540 h 110 v 10 h -110 z M 4260 3540 h 110 v 10 h -110 z M 1230 3530 h 2660 v 10 h -2660 z M 3950 3530 h 110 v 10 h -110 z M 4260 3530 h 110 v 10 h -110 z M 1230 3520 h 2660 v 10 h -2660 z M 3950 3520 h 110 v 10 h -110 z M 4260 3520 h 110 v 10 h -110 z M 1230 3510 h 2660 v 10 h -2660 z M 3950 3510 h 110 v 10 h -110 z M 4260 3510 h 110 v 10 h -110 z M 1230 3500 h 2660 v 10 h -2660 z M 3950 3500 h 110 v 10 h -110 z M 4260 3500 h 110 v 10 h -110 z M 1230 3490 h 2660 v 10 h -2660 z M 3950 3490 h 110 v 10 h -110 z M 4260 3490 h 110 v 10 h -110 z M 1230 3480 h 2660 v 10 h -2660 z M 3950 3480 h 110 v 10 h -110 z M 4260 3480 h 110 v 10 h -110 z M 1230 3470 h 330 v 10 h -330 z M 3560 3470 h 330 v 10 h -330 z M 3950 3470 h 110 v 10 h -110 z M 4260 3470 h 110 v 10 h -110 z M 1230 3460 h 330 v 10 h -330 z M 3560 3460 h 330 v 10 h -330 z M 3950 3460 h 110 v 10 h -110 z M 4260 3460 h 110 v 10 h -110 z M 1230 3450 h 320 v 10 h -320 z M 3570 3450 h 320 v 10 h -320 z M 3950 3450 h 420 v 10 h -420 z M 1230 3440 h 320 v 10 h -320 z M 3570 3440 h 320 v 10 h -320 z M 3950 3440 h 420 v 10 h -420 z M 1230 3430 h 320 v 10 h -320 z M 3570 3430 h 320 v 10 h -320 z M 3950 3430 h 420 v 10 h -420 z M 1230 3420 h 310 v 10 h -310 z M 3580 3420 h 310 v 10 h -310 z M 3950 3420 h 420 v 10 h -420 z M 1230 3410 h 310 v 10 h -310 z M 3580 3410 h 310 v 10 h -310 z M 3950 3410 h 420 v 10 h -420 z M 1230 3400 h 310 v 10 h -310 z M 3580 3400 h 310 v 10 h -310 z M 3950 3400 h 420 v 10 h -420 z M 1230 3390 h 300 v 10 h -300 z M 3590 3390 h 300 v 10 h -300 z M 3950 3390 h 420 v 10 h -420 z M 1230 3380 h 300 v 10 h -300 z M 3590 3380 h 300 v 10 h -300 z M 3950 3380 h 420 v 10 h -420 z M 1230 3370 h 300 v 10 h -300 z M 3590 3370 h 300 v 10 h -300 z M 3950 3370 h 420 v 10 h -420 z M 1230 3360 h 290 v 10 h -290 z M 3590 3360 h 300 v 10 h -300 z M 3960 3360 h 400 v 10 h -400 z M 1230 3350 h 290 v 10 h -290 z M 3600 3350 h 290 v 10 h -290 z M 3980 3350 h 360 v 10 h -360 z M 1230 3340 h 290 v 10 h -290 z M 3600 3340 h 290 v 10 h -290 z M 1230 3330 h 290 v 10 h -290 z M 3600 3330 h 290 v 10 h -290 z M 1230 3320 h 290 v 10 h -290 z M 3600 3320 h 290 v 10 h -290 z M 1230 3310 h 290 v 10 h -290 z M 3600 3310 h 290 v 10 h -290 z M 1230 3300 h 290 v 10 h -290 z M 3600 3300 h 290 v 10 h -290 z M 1210 3290 h 300 v 10 h -300 z M 3610 3290 h 290 v 10 h -290 z M 1200 3280 h 300 v 10 h -300 z M 3620 3280 h 290 v 10 h -290 z M 1190 3270 h 300 v 10 h -300 z M 3630 3270 h 290 v 10 h -290 z M 1180 3260 h 230 v 10 h -230 z M 2010 3260 h 120 v 10 h -120 z M 2990 3260 h 120 v 10 h -120 z M 3710 3260 h 220 v 10 h -220 z M 1180 3250 h 190 v 10 h -190 z M 1990 3250 h 160 v 10 h -160 z M 2970 3250 h 160 v 10 h -160 z M 3750 3250 h 190 v 10 h -190 z M 1170 3240 h 170 v 10 h -170 z M 1980 3240 h 180 v 10 h -180 z M 2960 3240 h 180 v 10 h -180 z M 3770 3240 h 170 v 10 h -170 z M 1160 3230 h 160 v 10 h -160 z M 1960 3230 h 220 v 10 h -220 z M 2940 3230 h 220 v 10 h -220 z M 3790 3230 h 160 v 10 h -160 z M 1150 3220 h 160 v 10 h -160 z M 1950 3220 h 240 v 10 h -240 z M 2930 3220 h 240 v 10 h -240 z M 3800 3220 h 160 v 10 h -160 z M 1150 3210 h 150 v 10 h -150 z M 1950 3210 h 240 v 10 h -240 z M 2930 3210 h 240 v 10 h -240 z M 3820 3210 h 150 v 10 h -150 z M 1140 3200 h 140 v 10 h -140 z M 1940 3200 h 260 v 10 h -260 z M 2920 3200 h 260 v 10 h -260 z M 3830 3200 h 140 v 10 h -140 z M 1130 3190 h 140 v 10 h -140 z M 1930 3190 h 280 v 10 h -280 z M 2910 3190 h 280 v 10 h -280 z M 3840 3190 h 140 v 10 h -140 z M 1130 3180 h 130 v 10 h -130 z M 1930 3180 h 280 v 10 h -280 z M 2910 3180 h 280 v 10 h -280 z M 3850 3180 h 130 v 10 h -130 z M 1120 3170 h 140 v 10 h -140 z M 1920 3170 h 300 v 10 h -300 z M 2900 3170 h 300 v 10 h -300 z M 3860 3170 h 130 v 10 h -130 z M 1120 3160 h 130 v 10 h -130 z M 1920 3160 h 300 v 10 h -300 z M 2900 3160 h 300 v 10 h -300 z M 3860 3160 h 130 v 10 h -130 z M 1120 3150 h 120 v 10 h -120 z M 1920 3150 h 300 v 10 h -300 z M 2900 3150 h 300 v 10 h -300 z M 3870 3150 h 130 v 10 h -130 z M 1110 3140 h 130 v 10 h -130 z M 1920 3140 h 300 v 10 h -300 z M 2900 3140 h 300 v 10 h -300 z M 3880 3140 h 120 v 10 h -120 z M 1110 3130 h 120 v 10 h -120 z M 1920 3130 h 300 v 10 h -300 z M 2900 3130 h 300 v 10 h -300 z M 3880 3130 h 120 v 10 h -120 z M 1110 3120 h 110 v 10 h -110 z M 1920 3120 h 300 v 10 h -300 z M 2900 3120 h 300 v 10 h -300 z M 3890 3120 h 120 v 10 h -120 z M 1100 3110 h 120 v 10 h -120 z M 1920 3110 h 300 v 10 h -300 z M 2900 3110 h 300 v 10 h -300 z M 3890 3110 h 120 v 10 h -120 z M 1100 3100 h 120 v 10 h -120 z M 1920 3100 h 300 v 10 h -300 z M 2900 3100 h 300 v 10 h -300 z M 3900 3100 h 110 v 10 h -110 z M 1100 3090 h 110 v 10 h -110 z M 1920 3090 h 300 v 10 h -300 z M 2900 3090 h 300 v 10 h -300 z M 3900 3090 h 120 v 10 h -120 z M 1100 3080 h 110 v 10 h -110 z M 1920 3080 h 300 v 10 h -300 z M 2900 3080 h 300 v 10 h -300 z M 3900 3080 h 120 v 10 h -120 z M 1090 3070 h 120 v 10 h -120 z M 1920 3070 h 300 v 10 h -300 z M 2900 3070 h 300 v 10 h -300 z M 3910 3070 h 110 v 10 h -110 z M 1090 3060 h 110 v 10 h -110 z M 1920 3060 h 300 v 10 h -300 z M 2900 3060 h 300 v 10 h -300 z M 3910 3060 h 110 v 10 h -110 z M 1090 3050 h 110 v 10 h -110 z M 1930 3050 h 280 v 10 h -280 z M 2910 3050 h 280 v 10 h -280 z M 3910 3050 h 110 v 10 h -110 z M 1090 3040 h 110 v 10 h -110 z M 1930 3040 h 280 v 10 h -280 z M 2910 3040 h 280 v 10 h -280 z M 3910 3040 h 110 v 10 h -110 z M 1090 3030 h 110 v 10 h -110 z M 1940 3030 h 260 v 10 h -260 z M 2920 3030 h 260 v 10 h -260 z M 3910 3030 h 120 v 10 h -120 z M 1090 3020 h 110 v 10 h -110 z M 1950 3020 h 240 v 10 h -240 z M 2930 3020 h 240 v 10 h -240 z M 3920 3020 h 110 v 10 h -110 z M 1090 3010 h 110 v 10 h -110 z M 1950 3010 h 240 v 10 h -240 z M 2930 3010 h 240 v 10 h -240 z M 3920 3010 h 110 v 10 h -110 z M 1090 3000 h 110 v 10 h -110 z M 1960 3000 h 220 v 10 h -220 z M 2940 3000 h 220 v 10 h -220 z M 3920 3000 h 110 v 10 h -110 z M 1090 2990 h 110 v 10 h -110 z M 1980 2990 h 180 v 10 h -180 z M 2960 2990 h 180 v 10 h -180 z M 3920 2990 h 110 v 10 h -110 z M 1090 2980 h 110 v 10 h -110 z M 1990 2980 h 160 v 10 h -160 z M 2970 2980 h 160 v 10 h -160 z M 3920 2980 h 110 v 10 h -110 z M 1090 2970 h 110 v 10 h -110 z M 2010 2970 h 120 v 10 h -120 z M 2990 2970 h 120 v 10 h -120 z M 3920 2970 h 110 v 10 h -110 z M 1090 2960 h 110 v 10 h -110 z M 3920 2960 h 110 v 10 h -110 z M 1090 2950 h 110 v 10 h -110 z M 3920 2950 h 110 v 10 h -110 z M 1090 2940 h 110 v 10 h -110 z M 3910 2940 h 120 v 10 h -120 z M 1090 2930 h 110 v 10 h -110 z M 3910 2930 h 110 v 10 h -110 z M 1090 2920 h 120 v 10 h -120 z M 3910 2920 h 110 v 10 h -110 z M 1090 2910 h 120 v 10 h -120 z M 3910 2910 h 110 v 10 h -110 z M 1100 2900 h 110 v 10 h -110 z M 3910 2900 h 110 v 10 h -110 z M 1100 2890 h 110 v 10 h -110 z M 3900 2890 h 120 v 10 h -120 z M 1100 2880 h 120 v 10 h -120 z M 3900 2880 h 120 v 10 h -120 z M 1100 2870 h 120 v 10 h -120 z M 3890 2870 h 120 v 10 h -120 z M 1110 2860 h 120 v 10 h -120 z M 3890 2860 h 120 v 10 h -120 z M 1110 2850 h 120 v 10 h -120 z M 3880 2850 h 130 v 10 h -130 z M 1110 2840 h 130 v 10 h -130 z M 3880 2840 h 120 v 10 h -120 z M 1120 2830 h 130 v 10 h -130 z M 3870 2830 h 130 v 10 h -130 z M 1120 2820 h 130 v 10 h -130 z M 3870 2820 h 130 v 10 h -130 z M 1130 2810 h 130 v 10 h -130 z M 3860 2810 h 130 v 10 h -130 z M 1130 2800 h 140 v 10 h -140 z M 3850 2800 h 140 v 10 h -140 z M 1140 2790 h 140 v 10 h -140 z M 3840 2790 h 140 v 10 h -140 z M 1140 2780 h 150 v 10 h -150 z M 3830 2780 h 150 v 10 h -150 z M 1150 2770 h 150 v 10 h -150 z M 3820 2770 h 150 v 10 h -150 z M 1160 2760 h 160 v 10 h -160 z M 3810 2760 h 150 v 10 h -150 z M 1160 2750 h 170 v 10 h -170 z M 3790 2750 h 170 v 10 h -170 z M 1170 2740 h 180 v 10 h -180 z M 3770 2740 h 180 v 10 h -180 z M 1180 2730 h 190 v 10 h -190 z M 3750 2730 h 190 v 10 h -190 z M 1190 2720 h 220 v 10 h -220 z M 3710 2720 h 220 v 10 h -220 z M 1200 2710 h 280 v 10 h -280 z M 3640 2710 h 280 v 10 h -280 z M 1210 2700 h 290 v 10 h -290 z M 3620 2700 h 290 v 10 h -290 z M 1220 2690 h 290 v 10 h -290 z M 3610 2690 h 290 v 10 h -290 z M 1230 2680 h 280 v 10 h -280 z M 3600 2680 h 290 v 10 h -290 z M 1240 2670 h 280 v 10 h -280 z M 3600 2670 h 280 v 10 h -280 z M 1260 2660 h 260 v 10 h -260 z M 3600 2660 h 260 v 10 h -260 z M 1280 2650 h 240 v 10 h -240 z M 3600 2650 h 240 v 10 h -240 z M 1300 2640 h 220 v 10 h -220 z M 3600 2640 h 220 v 10 h -220 z M 1320 2630 h 200 v 10 h -200 z M 3600 2630 h 200 v 10 h -200 z M 1350 2620 h 170 v 10 h -170 z M 3600 2620 h 170 v 10 h -170 z M 1390 2610 h 140 v 10 h -140 z M 3590 2610 h 140 v 10 h -140 z M 1420 2600 h 110 v 10 h -110 z M 3590 2600 h 110 v 10 h -110 z M 1420 2590 h 110 v 10 h -110 z M 3590 2590 h 110 v 10 h -110 z M 1420 2580 h 110 v 10 h -110 z M 3590 2580 h 110 v 10 h -110 z M 1420 2570 h 110 v 10 h -110 z M 3590 2570 h 110 v 10 h -110 z M 1420 2560 h 110 v 10 h -110 z M 3590 2560 h 110 v 10 h -110 z M 1420 2550 h 120 v 10 h -120 z M 3580 2550 h 120 v 10 h -120 z M 1430 2540 h 110 v 10 h -110 z M 3580 2540 h 110 v 10 h -110 z M 1430 2530 h 110 v 10 h -110 z M 3580 2530 h 110 v 10 h -110 z M 1430 2520 h 110 v 10 h -110 z M 3580 2520 h 110 v 10 h -110 z M 1430 2510 h 120 v 10 h -120 z M 3570 2510 h 120 v 10 h -120 z M 1430 2500 h 120 v 10 h -120 z M 3570 2500 h 120 v 10 h -120 z M 1440 2490 h 110 v 10 h -110 z M 3570 2490 h 110 v 10 h -110 z M 1440 2480 h 110 v 10 h -110 z M 3570 2480 h 110 v 10 h -110 z M 1440 2470 h 110 v 10 h -110 z M 3570 2470 h 110 v 10 h -110 z M 1440 2460 h 120 v 10 h -120 z M 3560 2460 h 120 v 10 h -120 z M 1450 2450 h 110 v 10 h -110 z M 3560 2450 h 110 v 10 h -110 z M 1450 2440 h 110 v 10 h -110 z M 3560 2440 h 110 v 10 h -110 z M 1450 2430 h 120 v 10 h -120 z M 3550 2430 h 120 v 10 h -120 z M 1450 2420 h 120 v 10 h -120 z M 3550 2420 h 120 v 10 h -120 z M 1460 2410 h 110 v 10 h -110 z M 3550 2410 h 110 v 10 h -110 z M 1460 2400 h 110 v 10 h -110 z M 3550 2400 h 110 v 10 h -110 z M 1460 2390 h 120 v 10 h -120 z M 3540 2390 h 120 v 10 h -120 z M 1470 2380 h 110 v 10 h -110 z M 3540 2380 h 110 v 10 h -110 z M 1470 2370 h 110 v 10 h -110 z M 3540 2370 h 110 v 10 h -110 z M 1470 2360 h 120 v 10 h -120 z M 3530 2360 h 120 v 10 h -120 z M 1480 2350 h 110 v 10 h -110 z M 3530 2350 h 120 v 10 h -120 z M 1480 2340 h 120 v 10 h -120 z M 3530 2340 h 110 v 10 h -110 z M 1480 2330 h 120 v 10 h -120 z M 3520 2330 h 120 v 10 h -120 z M 1490 2320 h 110 v 10 h -110 z M 3520 2320 h 120 v 10 h -120 z M 1490 2310 h 120 v 10 h -120 z M 3510 2310 h 120 v 10 h -120 z M 1490 2300 h 120 v 10 h -120 z M 3510 2300 h 120 v 10 h -120 z M 1500 2290 h 110 v 10 h -110 z M 3510 2290 h 110 v 10 h -110 z M 1500 2280 h 120 v 10 h -120 z M 3500 2280 h 120 v 10 h -120 z M 1500 2270 h 120 v 10 h -120 z M 3500 2270 h 120 v 10 h -120 z M 1510 2260 h 120 v 10 h -120 z M 3490 2260 h 120 v 10 h -120 z M 1510 2250 h 120 v 10 h -120 z M 3490 2250 h 120 v 10 h -120 z M 1520 2240 h 120 v 10 h -120 z M 3480 2240 h 120 v 10 h -120 z M 1520 2230 h 120 v 10 h -120 z M 3480 2230 h 120 v 10 h -120 z M 1520 2220 h 130 v 10 h -130 z M 3470 2220 h 130 v 10 h -130 z M 1530 2210 h 120 v 10 h -120 z M 3470 2210 h 120 v 10 h -120 z M 1530 2200 h 130 v 10 h -130 z M 3460 2200 h 130 v 10 h -130 z M 1540 2190 h 120 v 10 h -120 z M 3460 2190 h 120 v 10 h -120 z M 1540 2180 h 130 v 10 h -130 z M 3450 2180 h 130 v 10 h -130 z M 1550 2170 h 120 v 10 h -120 z M 3450 2170 h 120 v 10 h -120 z M 1550 2160 h 130 v 10 h -130 z M 3440 2160 h 130 v 10 h -130 z M 1560 2150 h 120 v 10 h -120 z M 3440 2150 h 120 v 10 h -120 z M 1560 2140 h 130 v 10 h -130 z M 3430 2140 h 130 v 10 h -130 z M 1570 2130 h 130 v 10 h -130 z M 3420 2130 h 130 v 10 h -130 z M 1570 2120 h 130 v 10 h -130 z M 3420 2120 h 130 v 10 h -130 z M 1580 2110 h 130 v 10 h -130 z M 3410 2110 h 130 v 10 h -130 z M 1590 2100 h 130 v 10 h -130 z M 3400 2100 h 130 v 10 h -130 z M 1590 2090 h 130 v 10 h -130 z M 3400 2090 h 130 v 10 h -130 z M 1600 2080 h 130 v 10 h -130 z M 3390 2080 h 130 v 10 h -130 z M 1600 2070 h 140 v 10 h -140 z M 3380 2070 h 140 v 10 h -140 z M 1610 2060 h 140 v 10 h -140 z M 3370 2060 h 140 v 10 h -140 z M 1620 2050 h 130 v 10 h -130 z M 3370 2050 h 130 v 10 h -130 z M 1620 2040 h 140 v 10 h -140 z M 3360 2040 h 140 v 10 h -140 z M 1630 2030 h 140 v 10 h -140 z M 3350 2030 h 140 v 10 h -140 z M 1640 2020 h 140 v 10 h -140 z M 3340 2020 h 140 v 10 h -140 z M 1640 2010 h 150 v 10 h -150 z M 3330 2010 h 150 v 10 h -150 z M 1650 2000 h 150 v 10 h -150 z M 3320 2000 h 150 v 10 h -150 z M 1660 1990 h 140 v 10 h -140 z M 3320 1990 h 140 v 10 h -140 z M 1670 1980 h 140 v 10 h -140 z M 3310 1980 h 140 v 10 h -140 z M 1670 1970 h 150 v 10 h -150 z M 3300 1970 h 150 v 10 h -150 z M 1680 1960 h 150 v 10 h -150 z M 3290 1960 h 150 v 10 h -150 z M 1690 1950 h 150 v 10 h -150 z M 3280 1950 h 150 v 10 h -150 z M 1700 1940 h 160 v 10 h -160 z M 3270 1940 h 150 v 10 h -150 z M 1710 1930 h 160 v 10 h -160 z M 3250 1930 h 160 v 10 h -160 z M 1720 1920 h 160 v 10 h -160 z M 3240 1920 h 160 v 10 h -160 z M 1730 1910 h 160 v 10 h -160 z M 3230 1910 h 160 v 10 h -160 z M 1730 1900 h 170 v 10 h -170 z M 3220 1900 h 170 v 10 h -170 z M 1740 1890 h 180 v 10 h -180 z M 3210 1890 h 170 v 10 h -170 z M 1750 1880 h 180 v 10 h -180 z M 3190 1880 h 180 v 10 h -180 z M 1760 1870 h 180 v 10 h -180 z M 3180 1870 h 180 v 10 h -180 z M 1780 1860 h 180 v 10 h -180 z M 3160 1860 h 180 v 10 h -180 z M 1790 1850 h 180 v 10 h -180 z M 3150 1850 h 180 v 10 h -180 z M 1800 1840 h 190 v 10 h -190 z M 3130 1840 h 190 v 10 h -190 z M 1810 1830 h 200 v 10 h -200 z M 3120 1830 h 190 v 10 h -190 z M 1820 1820 h 200 v 10 h -200 z M 3100 1820 h 200 v 10 h -200 z M 1830 1810 h 210 v 10 h -210 z M 3080 1810 h 210 v 10 h -210 z M 1850 1800 h 210 v 10 h -210 z M 3060 1800 h 210 v 10 h -210 z M 1860 1790 h 220 v 10 h -220 z M 3040 1790 h 220 v 10 h -220 z M 1870 1780 h 230 v 10 h -230 z M 3020 1780 h 230 v 10 h -230 z M 1890 1770 h 240 v 10 h -240 z M 2990 1770 h 240 v 10 h -240 z M 1900 1760 h 260 v 10 h -260 z M 2960 1760 h 260 v 10 h -260 z M 1920 1750 h 260 v 10 h -260 z M 2940 1750 h 260 v 10 h -260 z M 1930 1740 h 290 v 10 h -290 z M 2900 1740 h 290 v 10 h -290 z M 1950 1730 h 300 v 10 h -300 z M 2870 1730 h 300 v 10 h -300 z M 1970 1720 h 330 v 10 h -330 z M 2820 1720 h 330 v 10 h -330 z M 1990 1710 h 360 v 10 h -360 z M 2770 1710 h 360 v 10 h -360 z M 2010 1700 h 420 v 10 h -420 z M 2690 1700 h 420 v 10 h -420 z M 2030 1690 h 1060 v 10 h -1060 z M 2030 1680 h 1060 v 10 h -1060 z M 2030 1670 h 1060 v 10 h -1060 z M 2030 1660 h 1060 v 10 h -1060 z M 2030 1650 h 1060 v 10 h -1060 z M 1670 1640 h 470 v 10 h -470 z M 2160 1640 h 800 v 10 h -800 z M 2980 1640 h 470 v 10 h -470 z M 1610 1630 h 530 v 10 h -530 z M 2190 1630 h 740 v 10 h -740 z M 2980 1630 h 530 v 10 h -530 z M 1560 1620 h 580 v 10 h -580 z M 2230 1620 h 660 v 10 h -660 z M 2980 1620 h 580 v 10 h -580 z M 1530 1610 h 610 v 10 h -610 z M 2280 1610 h 560 v 10 h -560 z M 2980 1610 h 610 v 10 h -610 z M 1500 1600 h 640 v 10 h -640 z M 2330 1600 h 460 v 10 h -460 z M 2980 1600 h 640 v 10 h -640 z M 1470 1590 h 670 v 10 h -670 z M 2420 1590 h 280 v 10 h -280 z M 2980 1590 h 670 v 10 h -670 z M 1440 1580 h 700 v 10 h -700 z M 2980 1580 h 700 v 10 h -700 z M 1420 1570 h 730 v 10 h -730 z M 2970 1570 h 730 v 10 h -730 z M 1400 1560 h 750 v 10 h -750 z M 2970 1560 h 750 v 10 h -750 z M 1380 1550 h 770 v 10 h -770 z M 2970 1550 h 770 v 10 h -770 z M 1360 1540 h 790 v 10 h -790 z M 2970 1540 h 790 v 10 h -790 z M 1340 1530 h 340 v 10 h -340 z M 2040 1530 h 120 v 10 h -120 z M 2960 1530 h 120 v 10 h -120 z M 3440 1530 h 340 v 10 h -340 z M 1330 1520 h 290 v 10 h -290 z M 2040 1520 h 120 v 10 h -120 z M 2960 1520 h 120 v 10 h -120 z M 3500 1520 h 300 v 10 h -300 z M 1310 1510 h 270 v 10 h -270 z M 2040 1510 h 120 v 10 h -120 z M 2960 1510 h 120 v 10 h -120 z M 3540 1510 h 270 v 10 h -270 z M 1300 1500 h 250 v 10 h -250 z M 2050 1500 h 120 v 10 h -120 z M 2950 1500 h 120 v 10 h -120 z M 3570 1500 h 260 v 10 h -260 z M 1280 1490 h 240 v 10 h -240 z M 2050 1490 h 120 v 10 h -120 z M 2950 1490 h 120 v 10 h -120 z M 3600 1490 h 240 v 10 h -240 z M 1270 1480 h 230 v 10 h -230 z M 2060 1480 h 120 v 10 h -120 z M 2940 1480 h 120 v 10 h -120 z M 3620 1480 h 230 v 10 h -230 z M 1260 1470 h 240 v 10 h -240 z M 2060 1470 h 130 v 10 h -130 z M 2930 1470 h 130 v 10 h -130 z M 3620 1470 h 250 v 10 h -250 z M 1240 1460 h 270 v 10 h -270 z M 2060 1460 h 130 v 10 h -130 z M 2930 1460 h 130 v 10 h -130 z M 3610 1460 h 270 v 10 h -270 z M 1230 1450 h 290 v 10 h -290 z M 2070 1450 h 130 v 10 h -130 z M 2920 1450 h 130 v 10 h -130 z M 3600 1450 h 290 v 10 h -290 z M 1220 1440 h 310 v 10 h -310 z M 2070 1440 h 140 v 10 h -140 z M 2910 1440 h 140 v 10 h -140 z M 3590 1440 h 310 v 10 h -310 z M 1210 1430 h 330 v 10 h -330 z M 2080 1430 h 140 v 10 h -140 z M 2900 1430 h 140 v 10 h -140 z M 3580 1430 h 340 v 10 h -340 z M 1200 1420 h 350 v 10 h -350 z M 2090 1420 h 140 v 10 h -140 z M 2890 1420 h 140 v 10 h -140 z M 3570 1420 h 360 v 10 h -360 z M 1190 1410 h 370 v 10 h -370 z M 2090 1410 h 140 v 10 h -140 z M 2880 1410 h 150 v 10 h -150 z M 3560 1410 h 380 v 10 h -380 z M 1180 1400 h 390 v 10 h -390 z M 2100 1400 h 140 v 10 h -140 z M 2880 1400 h 140 v 10 h -140 z M 3550 1400 h 400 v 10 h -400 z M 1170 1390 h 410 v 10 h -410 z M 2110 1390 h 140 v 10 h -140 z M 2870 1390 h 140 v 10 h -140 z M 3540 1390 h 420 v 10 h -420 z M 1160 1380 h 430 v 10 h -430 z M 2110 1380 h 150 v 10 h -150 z M 2860 1380 h 150 v 10 h -150 z M 3530 1380 h 430 v 10 h -430 z M 1150 1370 h 450 v 10 h -450 z M 2120 1370 h 160 v 10 h -160 z M 2840 1370 h 160 v 10 h -160 z M 3520 1370 h 450 v 10 h -450 z M 1140 1360 h 470 v 10 h -470 z M 2130 1360 h 160 v 10 h -160 z M 2830 1360 h 160 v 10 h -160 z M 3510 1360 h 470 v 10 h -470 z M 1130 1350 h 490 v 10 h -490 z M 2140 1350 h 160 v 10 h -160 z M 2820 1350 h 160 v 10 h -160 z M 3500 1350 h 490 v 10 h -490 z M 1120 1340 h 510 v 10 h -510 z M 2150 1340 h 160 v 10 h -160 z M 2810 1340 h 160 v 10 h -160 z M 3490 1340 h 510 v 10 h -510 z M 1110 1330 h 530 v 10 h -530 z M 2160 1330 h 160 v 10 h -160 z M 2800 1330 h 160 v 10 h -160 z M 3480 1330 h 530 v 10 h -530 z M 1110 1320 h 540 v 10 h -540 z M 2160 1320 h 180 v 10 h -180 z M 2780 1320 h 170 v 10 h -170 z M 3470 1320 h 540 v 10 h -540 z M 1100 1310 h 560 v 10 h -560 z M 2170 1310 h 180 v 10 h -180 z M 2770 1310 h 180 v 10 h -180 z M 3460 1310 h 560 v 10 h -560 z M 1090 1300 h 580 v 10 h -580 z M 2190 1300 h 170 v 10 h -170 z M 2760 1300 h 170 v 10 h -170 z M 3450 1300 h 580 v 10 h -580 z M 1080 1290 h 600 v 10 h -600 z M 2200 1290 h 180 v 10 h -180 z M 2740 1290 h 180 v 10 h -180 z M 3440 1290 h 600 v 10 h -600 z M 1080 1280 h 610 v 10 h -610 z M 2210 1280 h 180 v 10 h -180 z M 2730 1280 h 180 v 10 h -180 z M 3430 1280 h 610 v 10 h -610 z M 1070 1270 h 630 v 10 h -630 z M 2220 1270 h 190 v 10 h -190 z M 2710 1270 h 190 v 10 h -190 z M 3420 1270 h 630 v 10 h -630 z M 1060 1260 h 650 v 10 h -650 z M 2230 1260 h 190 v 10 h -190 z M 2700 1260 h 190 v 10 h -190 z M 3410 1260 h 650 v 10 h -650 z M 1060 1250 h 660 v 10 h -660 z M 2240 1250 h 200 v 10 h -200 z M 2680 1250 h 200 v 10 h -200 z M 3400 1250 h 660 v 10 h -660 z M 1050 1240 h 680 v 10 h -680 z M 2250 1240 h 200 v 10 h -200 z M 2670 1240 h 200 v 10 h -200 z M 3390 1240 h 680 v 10 h -680 z M 1050 1230 h 690 v 10 h -690 z M 2270 1230 h 200 v 10 h -200 z M 2650 1230 h 200 v 10 h -200 z M 3380 1230 h 690 v 10 h -690 z M 1040 1220 h 710 v 10 h -710 z M 2280 1220 h 210 v 10 h -210 z M 2630 1220 h 210 v 10 h -210 z M 3370 1220 h 710 v 10 h -710 z M 1030 1210 h 730 v 10 h -730 z M 2290 1210 h 220 v 10 h -220 z M 2610 1210 h 220 v 10 h -220 z M 3360 1210 h 720 v 10 h -720 z M 1030 1200 h 740 v 10 h -740 z M 2310 1200 h 210 v 10 h -210 z M 2600 1200 h 210 v 10 h -210 z M 3350 1200 h 740 v 10 h -740 z M 1020 1190 h 760 v 10 h -760 z M 2320 1190 h 220 v 10 h -220 z M 2580 1190 h 220 v 10 h -220 z M 3340 1190 h 750 v 10 h -750 z M 1020 1180 h 770 v 10 h -770 z M 2340 1180 h 440 v 10 h -440 z M 3330 1180 h 770 v 10 h -770 z M 1010 1170 h 790 v 10 h -790 z M 2350 1170 h 420 v 10 h -420 z M 3320 1170 h 780 v 10 h -780 z M 1010 1160 h 800 v 10 h -800 z M 2370 1160 h 380 v 10 h -380 z M 3310 1160 h 800 v 10 h -800 z M 1010 1150 h 810 v 10 h -810 z M 2380 1150 h 360 v 10 h -360 z M 3300 1150 h 810 v 10 h -810 z M 1000 1140 h 830 v 10 h -830 z M 2400 1140 h 320 v 10 h -320 z M 3290 1140 h 830 v 10 h -830 z M 1000 1130 h 840 v 10 h -840 z M 2420 1130 h 280 v 10 h -280 z M 3280 1130 h 840 v 10 h -840 z M 990 1120 h 860 v 10 h -860 z M 2440 1120 h 240 v 10 h -240 z M 3270 1120 h 860 v 10 h -860 z M 990 1110 h 870 v 10 h -870 z M 2450 1110 h 220 v 10 h -220 z M 3260 1110 h 870 v 10 h -870 z M 980 1100 h 890 v 10 h -890 z M 2470 1100 h 180 v 10 h -180 z M 3250 1100 h 880 v 10 h -880 z M 980 1090 h 900 v 10 h -900 z M 2490 1090 h 140 v 10 h -140 z M 3240 1090 h 900 v 10 h -900 z M 980 1080 h 910 v 10 h -910 z M 2510 1080 h 100 v 10 h -100 z M 3230 1080 h 910 v 10 h -910 z M 970 1070 h 930 v 10 h -930 z M 2530 1070 h 60 v 10 h -60 z M 3220 1070 h 920 v 10 h -920 z M 970 1060 h 940 v 10 h -940 z M 3210 1060 h 940 v 10 h -940 z M 970 1050 h 950 v 10 h -950 z M 3200 1050 h 950 v 10 h -950 z M 970 1040 h 960 v 10 h -960 z M 3190 1040 h 960 v 10 h -960 z M 960 1030 h 980 v 10 h -980 z M 3180 1030 h 980 v 10 h -980 z M 960 1020 h 990 v 10 h -990 z M 3170 1020 h 990 v 10 h -990 z M 960 1010 h 1000 v 10 h -1000 z M 3160 1010 h 1000 v 10 h -1000 z M 950 1000 h 1020 v 10 h -1020 z M 3150 1000 h 1010 v 10 h -1010 z M 950 990 h 1030 v 10 h -1030 z M 3140 990 h 1030 v 10 h -1030 z M 950 980 h 1040 v 10 h -1040 z M 3130 980 h 1040 v 10 h -1040 z M 950 970 h 1050 v 10 h -1050 z M 3120 970 h 1050 v 10 h -1050 z M 950 960 h 1060 v 10 h -1060 z M 3110 960 h 1060 v 10 h -1060 z M 940 950 h 1080 v 10 h -1080 z M 3100 950 h 1070 v 10 h -1070 z M 940 940 h 1090 v 10 h -1090 z M 3090 940 h 1090 v 10 h -1090 z M 940 930 h 1100 v 10 h -1100 z M 3080 930 h 1100 v 10 h -1100 z M 940 920 h 1110 v 10 h -1110 z M 3070 920 h 1110 v 10 h -1110 z M 940 910 h 1120 v 10 h -1120 z M 3060 910 h 1120 v 10 h -1120 z M 940 900 h 1130 v 10 h -1130 z M 3050 900 h 1130 v 10 h -1130 z M 940 890 h 1140 v 10 h -1140 z M 3040 890 h 1140 v 10 h -1140 z M 940 880 h 1150 v 10 h -1150 z M 3030 880 h 1150 v 10 h -1150 z M 930 870 h 1170 v 10 h -1170 z M 3020 870 h 1170 v 10 h -1170 z M 930 860 h 1180 v 10 h -1180 z M 3010 860 h 1180 v 10 h -1180 z M 930 850 h 1190 v 10 h -1190 z M 3000 850 h 1190 v 10 h -1190 z M 930 840 h 1200 v 10 h -1200 z M 2990 840 h 1200 v 10 h -1200 z M 930 830 h 1210 v 10 h -1210 z M 2980 830 h 1210 v 10 h -1210 z M 930 820 h 1220 v 10 h -1220 z M 2970 820 h 1220 v 10 h -1220 z M 930 810 h 1230 v 10 h -1230 z M 2960 810 h 1230 v 10 h -1230 z M 930 800 h 1240 v 10 h -1240 z M 2950 800 h 1240 v 10 h -1240 z M 930 790 h 1250 v 10 h -1250 z M 2940 790 h 1250 v 10 h -1250 z M 930 780 h 1260 v 10 h -1260 z M 2930 780 h 1260 v 10 h -1260 z M 930 770 h 1270 v 10 h -1270 z M 2920 770 h 1270 v 10 h -1270 z M 930 760 h 1280 v 10 h -1280 z M 2910 760 h 1280 v 10 h -1280 z M 930 750 h 1290 v 10 h -1290 z M 2900 750 h 1290 v 10 h -1290 z M 930 740 h 1300 v 10 h -1300 z M 2890 740 h 1300 v 10 h -1300 z M 940 730 h 1300 v 10 h -1300 z M 2880 730 h 1300 v 10 h -1300 z M 940 720 h 1310 v 10 h -1310 z M 2870 720 h 1310 v 10 h -1310 z M 940 710 h 1320 v 10 h -1320 z M 2860 710 h 1320 v 10 h -1320 z M 940 700 h 1330 v 10 h -1330 z M 2850 700 h 1330 v 10 h -1330 z M 940 690 h 1340 v 10 h -1340 z M 2840 690 h 1340 v 10 h -1340 z M 940 680 h 1350 v 10 h -1350 z M 2830 680 h 1350 v 10 h -1350 z M 950 670 h 1350 v 10 h -1350 z M 2820 670 h 1350 v 10 h -1350 z M 950 660 h 1360 v 10 h -1360 z M 2810 660 h 1360 v 10 h -1360 z M 950 650 h 1370 v 10 h -1370 z M 2800 650 h 1370 v 10 h -1370 z M 950 640 h 1380 v 10 h -1380 z M 2790 640 h 1380 v 10 h -1380 z M 960 630 h 1380 v 10 h -1380 z M 2780 630 h 1380 v 10 h -1380 z M 960 620 h 1390 v 10 h -1390 z M 2770 620 h 1390 v 10 h -1390 z M 970 610 h 1390 v 10 h -1390 z M 2760 610 h 1390 v 10 h -1390 z M 970 600 h 1400 v 10 h -1400 z M 2750 600 h 1400 v 10 h -1400 z M 980 590 h 1400 v 10 h -1400 z M 2740 590 h 1400 v 10 h -1400 z M 990 580 h 1400 v 10 h -1400 z M 2730 580 h 1400 v 10 h -1400 z M 990 570 h 1410 v 10 h -1410 z M 2720 570 h 1410 v 10 h -1410 z M 1000 560 h 1410 v 10 h -1410 z M 2710 560 h 1410 v 10 h -1410 z M 1010 550 h 1410 v 10 h -1410 z M 2700 550 h 1410 v 10 h -1410 z M 1030 540 h 1400 v 10 h -1400 z M 2690 540 h 1400 v 10 h -1400 z M 1040 530 h 1400 v 10 h -1400 z M 2680 530 h 1400 v 10 h -1400 z M 1050 520 h 1400 v 10 h -1400 z M 2670 520 h 1400 v 10 h -1400 z M 1070 510 h 1390 v 10 h -1390 z M 2660 510 h 1390 v 10 h -1390 z M 1090 500 h 1380 v 10 h -1380 z M 2650 500 h 1380 v 10 h -1380 z M 1110 490 h 1370 v 10 h -1370 z M 2640 490 h 1370 v 10 h -1370 z M 1140 480 h 1350 v 10 h -1350 z M 2630 480 h 1350 v 10 h -1350 z M 1160 470 h 1340 v 10 h -1340 z M 2620 470 h 1340 v 10 h -1340 z M 1200 460 h 1310 v 10 h -1310 z M 2610 460 h 1320 v 10 h -1320 z M 1230 450 h 1290 v 10 h -1290 z M 2600 450 h 1290 v 10 h -1290 z M 1270 440 h 1260 v 10 h -1260 z M 2590 440 h 1260 v 10 h -1260 z M 1330 430 h 1210 v 10 h -1210 z M 2580 430 h 1210 v 10 h -1210 z M 1390 420 h 1160 v 10 h -1160 z M 2570 420 h 1170 v 10 h -1170 z M 1440 410 h 2240 v 10 h -2240 z M 1510 400 h 2100 v 10 h -2100 z M 1570 390 h 1980 v 10 h -1980 z M 1630 380 h 1860 v 10 h -1860 z M 1700 370 h 1730 v 10 h -1730 z M 1760 360 h 1600 v 10 h -1600 z M 1830 350 h 1470 v 10 h -1470 z M 1900 340 h 1330 v 10 h -1330 z M 1960 330 h 1200 v 10 h -1200 z M 2040 320 h 1050 v 10 h -1050 z M 2120 310 h 890 v 10 h -890 z M 2190 300 h 740 v 10 h -740 z M 2280 290 h 560 v 10 h -560 z M 2380 280 h 360 v 10 h -360 z"/>
</g>
</g><text dy="76.8"  text-anchor="middle" dx="50%" textLength="100%" font-weight="bold" font-size="76.8" fill="rgb(175,159,191)">VerbVoyaged</text></svg>